<?xml version="1.0" encoding="UTF-8" standalone="no"?>
<!-- Created with Inkscape (http://www.inkscape.org/) -->

<svg
   width="120"
   height="30"
   viewBox="0 0 31.749999 7.9375"
   version="1.1"
   id="svg1"
   inkscape:version="1.3.2 (091e20e, 2023-11-25, custom)"
   sodipodi:docname="lesta-logo.svg"
   xmlns:inkscape="http://www.inkscape.org/namespaces/inkscape"
   xmlns:sodipodi="http://sodipodi.sourceforge.net/DTD/sodipodi-0.dtd"
   xmlns="http://www.w3.org/2000/svg"
   xmlns:svg="http://www.w3.org/2000/svg">
  <sodipodi:namedview
     id="namedview1"
     pagecolor="#505050"
     bordercolor="#eeeeee"
     borderopacity="1"
     inkscape:showpageshadow="0"
     inkscape:pageopacity="0"
     inkscape:pagecheckerboard="0"
     inkscape:deskcolor="#505050"
     inkscape:document-units="mm"
     inkscape:zoom="4"
     inkscape:cx="72.5"
     inkscape:cy="36.625"
     inkscape:window-width="1920"
     inkscape:window-height="1001"
     inkscape:window-x="-9"
     inkscape:window-y="-9"
     inkscape:window-maximized="1"
     inkscape:current-layer="layer1" />
  <defs
     id="defs1">
    <clipPath
       id="clip0_3_19">
      <rect
         width="240"
         height="33.707901"
         fill="#ffffff"
         transform="translate(0,10)"
         id="rect10"
         x="0"
         y="0" />
    </clipPath>
  </defs>
  <g
     inkscape:label="Слой 1"
     inkscape:groupmode="layer"
     id="layer1">
    <text
       xml:space="preserve"
       style="font-size:1.41111px;font-family:HeliosCond;-inkscape-font-specification:HeliosCond;fill:#000000;stroke-width:0.264583"
       x="8.8281326"
       y="5.3030758"
       id="text1-4"><tspan
         sodipodi:role="line"
         id="tspan1-7"
         style="font-style:normal;font-variant:normal;font-weight:normal;font-stretch:normal;font-size:1.41111px;font-family:Verdana;-inkscape-font-specification:Verdana;fill:#ffffff;fill-opacity:1;stroke-width:0.264583"
         x="8.8281326"
         y="5.3030758">ЦЕНТР ПОДДЕРЖКИ</tspan></text>
    <path
       class="cls-1"
       d="M 0,0 V 7.9375 H 7.9375 V 0 Z M 5.5264843,6.736953 H 2.4110158 V 1.19724 h 1.1815299 v 4.545872 h 1.9339386 z"
       id="path1-5"
       style="fill:#ffffff;stroke-width:0.0826822" />
    <g
       clip-path="url(#clip0_3_19)"
       id="g10"
       transform="matrix(0.0830924,0,0,0.07970177,8.9096845,0.35022311)">
      <path
         d="M 6.88096,10.3721 H 0 V 43.3594 H 18.144 V 37.4351 H 6.88096 Z"
         fill="#ffffff"
         id="path1-8" />
      <path
         d="m 29.0301,29.3022 h 9.9955 v -5.7687 h -9.9955 v -7.205 H 40.8157 V 10.3809 H 22.1492 v 32.9873 h 18.7119 v -5.9244 h -11.831 z"
         fill="#ffffff"
         id="path2-6" />
      <path
         d="m 109.082,43.3636 h 6.854 l -8.86,-32.9827 h -6.722 l -8.6979,32.6224 -0.0931,0.351 h 6.8014 l 1.1359,-4.832 h 8.4457 z m -8.178,-10.8587 2.799,-11.8883 2.808,11.8883 z"
         fill="#ffffff"
         id="path3" />
      <path
         d="M 90.5271,10.3809 H 70.0659 v 6.0127 h 6.7401 v 26.9793 h 6.9651 V 16.3936 h 6.756 z"
         fill="#ffffff"
         id="path4" />
      <path
         d="M 66.8195,30.1373 C 66.4519,29.1182 65.8906,28.1837 65.168,27.3877 64.419,26.5815 63.5447,25.9076 62.5806,25.3936 61.5306,24.83 60.4335,24.3633 59.3025,23.9991 l -3.8187,-1.276 c -0.5112,-0.1813 -1.0541,-0.3696 -1.6152,-0.5532 -0.4068,-0.1258 -0.7938,-0.3105 -1.1495,-0.5485 -0.29,-0.2067 -0.5307,-0.4776 -0.7042,-0.7925 -0.1904,-0.4208 -0.2777,-0.8827 -0.2544,-1.3458 -1e-4,-0.351 0.0776,-0.6974 0.2271,-1.0133 0.1602,-0.3334 0.3934,-0.6245 0.6815,-0.8507 0.397,-0.3073 0.8471,-0.5352 1.3267,-0.6717 0.6875,-0.2006 1.4001,-0.2969 2.115,-0.2858 0.4652,0.0016 0.9281,0.0664 1.3766,0.1929 0.4364,0.1184 0.8541,0.3 1.2404,0.5392 0.368,0.2439 0.6853,0.5599 0.9336,0.9297 0.1272,0.1789 0.3385,0.6391 0.3385,1.7176 v 1.4479 h 6.6424 v -1.4503 c 0.0186,-1.3401 -0.2127,-2.6717 -0.6815,-3.9232 l -0.034,-0.0721 c -0.4198,-0.8576 -0.9442,-1.6573 -1.5607,-2.38 -0.6327,-0.7356 -1.3674,-1.3722 -2.1808,-1.8895 -0.8478,-0.5332 -1.7658,-0.9394 -2.7261,-1.2063 -1.056,-0.2909 -2.1458,-0.4332 -3.2394,-0.423 -1.5648,-0.0225 -3.1227,0.2178 -4.6115,0.7112 -1.2964,0.4322 -2.4989,1.1164 -3.5416,2.0151 -0.9714,0.8467 -1.7473,1.9032 -2.2717,3.0935 -0.5144,1.1843 -0.7769,2.4669 -0.7701,3.7629 -0.0176,1.1642 0.1567,2.3232 0.5157,3.4282 0.3328,0.9886 0.8462,1.9036 1.5129,2.6961 0.6569,0.7701 1.4365,1.4208 2.3058,1.9244 0.8885,0.5132 1.8303,0.9232 2.8078,1.2225 l 4.1458,1.1993 c 0.5225,0.172 1.07,0.3742 1.6289,0.602 0.481,0.1943 0.9347,0.453 1.3493,0.7693 0.3543,0.2697 0.6538,0.6076 0.8815,0.9947 0.2045,0.3892 0.3026,0.8276 0.2839,1.2691 0.0093,0.4469 -0.0775,0.8904 -0.2544,1.2992 -0.1673,0.3622 -0.4137,0.6803 -0.7201,0.9297 -0.3851,0.298 -0.8223,0.5181 -1.2881,0.6484 -0.6285,0.1783 -1.2788,0.2636 -1.9309,0.2534 -0.6977,0.0086 -1.3935,-0.0766 -2.0695,-0.2534 -0.5148,-0.1297 -1.0016,-0.3559 -1.4358,-0.667 -0.3439,-0.2534 -0.6235,-0.5873 -0.8155,-0.9739 -0.0681,-0.1371 -0.293,-0.7158 -0.293,-2.3962 v -1.0575 h -6.6107 v 1.0552 c 0.0099,1.2628 0.1716,2.5195 0.4816,3.7419 l 0.0114,0.0419 c 0.2798,0.9027 0.661,1.7692 1.1358,2.5821 0.5393,0.9125 1.2377,1.7161 2.0605,2.3707 0.9289,0.7284 1.9785,1.2795 3.0985,1.627 1.3741,0.4151 2.8021,0.6126 4.2345,0.5857 1.5141,0.0142 3.0195,-0.2341 4.4525,-0.7345 1.3083,-0.4557 2.5223,-1.1564 3.5802,-2.0662 1.0087,-0.8756 1.8267,-1.958 2.4012,-3.1772 0.5837,-1.2532 0.882,-2.6256 0.8723,-4.0139 0.0185,-1.1865 -0.1691,-2.3669 -0.5543,-3.4863 z"
         fill="#ffffff"
         id="path5" />
      <path
         d="m 158.403,10.3486 h -3.18 l -10.616,33.0153 h 3.925 l 2.547,-8.0069 h 11.52 l 2.571,8.0092 h 3.901 L 158.446,10.4834 Z m -6.134,21.2874 4.544,-14.3148 4.595,14.3148 z"
         fill="#ffffff"
         id="path6" />
      <path
         d="m 182.569,23.8476 -8.534,-13.499 h -3.167 v 33.0106 h 3.753 l -0.003,-25.1129 6.827,10.8168 0.057,0.0906 h 2.126 l 6.815,-10.8981 v 25.1036 h 3.753 V 10.3486 h -3.176 z"
         fill="#ffffff"
         id="path7" />
      <path
         d="m 237.392,28.826 c -1.558,-1.4247 -4.048,-2.8773 -7.399,-4.3207 -2.16,-0.9064 -3.753,-1.6409 -4.732,-2.1847 -0.771,-0.4026 -1.444,-0.9758 -1.972,-1.6781 -0.409,-0.5741 -0.615,-1.355 -0.615,-2.3242 0,-1.513 0.454,-2.6101 1.408,-3.3492 1.043,-0.8088 2.633,-1.2178 4.723,-1.2178 2.367,0 4.191,0.5066 5.42,1.5084 1.163,0.9459 1.727,2.1754 1.727,3.7559 v 2.696 h 3.75 v -2.789 c 0,-2.7402 -0.99,-4.9529 -2.953,-6.5775 C 234.877,10.7902 232.244,10 228.932,10 c -3.082,0 -5.518,0.6973 -7.237,2.1034 -1.818,1.4642 -2.726,3.5862 -2.726,6.3032 0,1.706 0.388,3.1493 1.154,4.2882 0.778,1.1302 1.797,2.0648 2.98,2.7332 1.664,0.9251 3.375,1.7599 5.125,2.5009 1.741,0.7349 3.429,1.5939 5.052,2.5705 1.077,0.6834 1.858,1.3946 2.326,2.1081 0.443,0.7128 0.667,1.545 0.643,2.3893 0,1.5479 -0.52,2.717 -1.59,3.5746 -1.136,0.9297 -2.887,1.3945 -5.172,1.3945 -2.443,0 -4.358,-0.509 -5.693,-1.5154 -0.587,-0.412 -1.063,-0.9686 -1.385,-1.6186 -0.321,-0.6499 -0.477,-1.3722 -0.453,-2.1001 V 31.536 h -3.667 v 3.2864 c 0,2.7263 1.052,4.932 3.124,6.5566 1.972,1.5456 4.659,2.3242 7.987,2.3242 3.258,0 5.85,-0.7856 7.699,-2.3242 1.926,-1.6107 2.901,-3.7861 2.901,-6.4682 0,-2.4544 -0.875,-4.4997 -2.608,-6.0848 z"
         fill="#ffffff"
         id="path8" />
      <path
         d="m 197.572,43.3592 h 19.511 V 39.6103 H 201.322 V 28.6889 h 12.831 V 24.9795 H 201.322 V 14.0581 l 15.761,0.0023 v -3.7118 h -19.511 z"
         fill="#ffffff"
         id="path9" />
      <path
         d="m 144.625,26.0231 h -11.678 v 3.7187 h 7.928 v 3.9046 c 0,1.9407 -0.593,3.4352 -1.818,4.5741 -1.224,1.1388 -2.914,1.7361 -4.997,1.7361 -2.083,0 -3.81,-0.5973 -5.057,-1.7756 -1.247,-1.1784 -1.836,-2.6798 -1.836,-4.6206 V 20.1475 c 0,-1.9407 0.6,-3.4514 1.836,-4.6205 1.236,-1.1691 2.953,-1.7757 5.057,-1.7757 2.103,0 3.757,0.5903 4.997,1.7524 1.241,1.1621 1.818,2.6589 1.818,4.602 v 1.6269 h 3.75 v -1.5851 c 0.028,-1.844 -0.426,-3.6622 -1.315,-5.2666 -0.888,-1.563 -2.204,-2.8258 -3.785,-3.6328 C 137.811,10.4261 135.941,10 134.047,10 c -1.893,0 -3.764,0.4261 -5.478,1.2481 -1.581,0.8062 -2.901,2.0629 -3.801,3.6188 -0.91,1.6178 -1.374,3.4582 -1.342,5.3248 v 13.3246 c -0.032,1.8665 0.432,3.7069 1.342,5.3247 0.903,1.5566 2.226,2.8133 3.81,3.6188 1.715,0.822 3.585,1.2481 5.478,1.2481 1.894,0 3.764,-0.4261 5.478,-1.2481 1.581,-0.8057 2.896,-2.0669 3.785,-3.6281 0.893,-1.6352 1.344,-3.4844 1.306,-5.3572 z"
         fill="#ffffff"
         id="path10" />
    </g>
  </g>
</svg>
