<?xml version="1.0" encoding="UTF-8" standalone="no"?>
<!-- Created with Inkscape (http://www.inkscape.org/) -->

<svg
   width="120"
   height="30"
   viewBox="0 0 31.749999 7.9375"
   version="1.1"
   id="svg1"
   inkscape:version="1.3.2 (091e20e, 2023-11-25, custom)"
   sodipodi:docname="mt-logo.svg"
   xmlns:inkscape="http://www.inkscape.org/namespaces/inkscape"
   xmlns:sodipodi="http://sodipodi.sourceforge.net/DTD/sodipodi-0.dtd"
   xmlns="http://www.w3.org/2000/svg"
   xmlns:svg="http://www.w3.org/2000/svg">
  <sodipodi:namedview
     id="namedview1"
     pagecolor="#505050"
     bordercolor="#eeeeee"
     borderopacity="1"
     inkscape:showpageshadow="0"
     inkscape:pageopacity="0"
     inkscape:pagecheckerboard="0"
     inkscape:deskcolor="#505050"
     inkscape:document-units="mm"
     inkscape:zoom="5.6088103"
     inkscape:cx="64.363025"
     inkscape:cy="25.763039"
     inkscape:window-width="1920"
     inkscape:window-height="1001"
     inkscape:window-x="-9"
     inkscape:window-y="-9"
     inkscape:window-maximized="1"
     inkscape:current-layer="layer1" />
  <defs
     id="defs1">
    <clipPath
       id="clip0_3_19">
      <rect
         width="240"
         height="33.707901"
         fill="#ffffff"
         transform="translate(0,10)"
         id="rect10"
         x="0"
         y="0" />
    </clipPath>
  </defs>
  <g
     inkscape:label="Слой 1"
     inkscape:groupmode="layer"
     id="layer1">
    <path
       d="M 2.9869101,4.3392714 4.13419,5.0615854 3.8123601,3.7371664 4.85387,2.8732004 3.4928101,2.7832904 2.98695,1.513448 2.4808201,2.7832904 1.12001,2.8732004 2.1614301,3.7371664 1.83956,5.0615854 2.98695,4.3392714 Z m 8e-5,3.598229 L 0,5.4309454 V 1.178476 L 1.40441,0 h 3.16513 l 1.40445,1.178476 v 4.2524694 z"
       fill="#F0401E"
       id="path1"
       style="fill:#ffffff;fill-opacity:1;stroke-width:0.0393481" />
    <path
       d="m 9.5372847,1.2075799 h 0.6230783 v 1.5447074 l 0.593326,-1.5447074 h 0.746177 V 3.8342533 H 10.876759 V 2.3456519 L 10.283565,3.8342533 H 9.5372847 Z m 4.0875623,0.6118417 v 0.947905 c 0,0.3879414 -0.261289,0.6118416 -0.653011,0.6118416 H 12.471911 V 3.8342533 H 11.811444 V 1.2075799 h 1.164167 c 0.387947,0 0.649236,0.2239002 0.649236,0.6118417 z m -0.738899,0.9515592 c 0.04849,0 0.07834,-0.029753 0.07834,-0.078233 V 1.894043 c 0,-0.048471 -0.02985,-0.078233 -0.07834,-0.078233 h -0.414037 v 0.9551634 z m 1.43991,-1.5633764 v 0.6082129 h 0.596969 v 2.0184605 h 0.656665 v -2.018485 h 0.597007 V 1.2075799 h -1.850641 z m 4.090239,2.6266734 V 1.2075799 h 0.66044 V 2.2037597 H 19.64361 V 1.2075799 h 0.660491 V 3.8342533 H 19.64361 V 2.8119729 h -0.567073 v 1.0222804 h -0.66044 z m 3.083747,-1.0222804 h -0.223752 v 1.0222804 h -0.66044 V 1.2075799 h 0.66044 v 0.9961798 h 0.227604 l 0.402908,-0.9961798 h 0.701382 l -0.511141,1.2797905 0.511141,1.3468829 H 21.876748 L 21.499844,2.8119729 Z m 1.203947,0.440219 V 1.7896667 c 0,-0.3880911 0.261213,-0.6120167 0.652983,-0.6120167 h 0.582086 c 0.39182,0 0.652884,0.2239256 0.652884,0.6120167 V 3.252191 c 0,0.3880912 -0.261114,0.6119913 -0.652884,0.6119913 h -0.582086 c -0.39172,0 -0.653008,-0.2239001 -0.652983,-0.6119913 z m 0.738844,0.00377 h 0.410414 c 0.04847,0 0.07825,-0.029903 0.07825,-0.078374 v -1.313369 c 0,-0.048471 -0.02978,-0.078356 -0.07825,-0.078356 h -0.410414 c -0.04859,0 -0.07843,0.029904 -0.07843,0.078356 l 2.5e-5,1.3133482 c 0,0.048471 0.02981,0.078374 0.0784,0.078374 z M 24.903321,1.207596 h 1.179039 c 0.391744,0 0.652883,0.2239002 0.652883,0.6118425 V 2.05825 c 0,0.1604116 -0.05969,0.2723494 -0.197625,0.358187 l -0.138064,0.085841 0.130507,0.074571 c 0.141843,0.082159 0.205182,0.1903415 0.205182,0.3545315 V 3.222424 c 0,0.3879659 -0.261139,0.6118416 -0.652883,0.6118416 H 24.903321 V 1.2075771 Z m 1.093227,1.0335667 c 0.04847,0 0.0784,-0.029932 0.0784,-0.078403 V 1.8865784 c 0,-0.048452 -0.02993,-0.078205 -0.0784,-0.078205 h -0.432762 v 0.4327865 z m 0,0.9923518 c 0.04847,0 0.0784,-0.029781 0.0784,-0.078233 V 2.8491697 c 0,-0.048471 -0.02993,-0.078233 -0.0784,-0.078233 h -0.432762 v 0.4625422 h 0.432762 z m -8.53902,0.1456707 h -0.579923 l -0.05847,0.4550842 H 16.128894 L 16.490853,1.207596 h 1.349692 l 0.361866,2.6266734 h -0.686418 c -0.01951,-0.1516863 -0.039,-0.3033725 -0.05847,-0.4550842 z M 16.956505,2.7709685 h 0.420407 l -0.125883,-0.955154 h -0.170654 l -0.111888,0.8581162 h 6.29e-4 z M 7.416089,2.3753794 V 3.8342505 H 6.79301 V 1.2075771 H 7.5839294 L 8.0092832,2.5432494 8.4347595,1.2075771 H 9.2257071 V 3.8342505 H 8.6026093 V 2.3828375 L 8.2331552,3.4835219 H 7.7855055 Z"
       fill="#ffffff"
       id="path2"
       style="stroke-width:0.0248587" />
    <text
       xml:space="preserve"
       style="font-size:1.41111px;font-family:HeliosCond;-inkscape-font-specification:HeliosCond;fill:#000000;stroke-width:0.264583"
       x="6.7123556"
       y="5.3286777"
       id="text1"><tspan
         sodipodi:role="line"
         id="tspan1"
         style="font-style:normal;font-variant:normal;font-weight:normal;font-stretch:normal;font-size:1.41111px;font-family:Verdana;-inkscape-font-specification:Verdana;fill:#ffffff;fill-opacity:1;stroke-width:0.264583"
         x="6.7123556"
         y="5.3286777">ОФИЦИАЛЬНЫЙ ПОРТАЛ</tspan></text>
  </g>
</svg>
